<svg width="24" height="24" viewBox="0 0 24 24" fill="none" xmlns="http://www.w3.org/2000/svg">
<path d="M6.0001 14.4L1.6513 10.8C0.830504 10.1436 1.1905 8.82359 2.2321 8.67479L8.4001 8.39999L11.0341 1.79639C11.1238 1.61698 11.2617 1.4661 11.4323 1.36065C11.6029 1.2552 11.7995 1.19934 12.0001 1.19934C12.2007 1.19934 12.3973 1.2552 12.5679 1.36065C12.7385 1.4661 12.8764 1.61698 12.9661 1.79639L15.6001 8.39999L21.7681 8.67479C22.8097 8.82359 23.1697 10.1436 22.3489 10.8L18.0001 14.4L19.1869 21.4284C19.2179 21.6452 19.189 21.8663 19.1033 22.0678C19.0176 22.2693 18.8784 22.4435 18.7007 22.5716C18.5231 22.6996 18.3138 22.7767 18.0956 22.7943C17.8773 22.8119 17.6584 22.7695 17.4625 22.6716L12.0001 19.2L6.5377 22.6704C6.34183 22.7683 6.1229 22.8107 5.90463 22.7931C5.68637 22.7755 5.47709 22.6984 5.29946 22.5704C5.12183 22.4423 4.98263 22.2681 4.89694 22.0666C4.81124 21.8651 4.78232 21.644 4.8133 21.4272L6.0001 14.4Z" fill="#B0AAD0"/>
</svg>
