<svg width="40" height="40" viewBox="0 0 40 40" fill="none" xmlns="http://www.w3.org/2000/svg">
<path d="M20.0002 27.9999C19.7375 28.0002 19.4774 27.9486 19.2347 27.848C18.9921 27.7475 18.7717 27.5999 18.5862 27.4139L8.58619 17.4139C8.4005 17.2283 8.2532 17.0078 8.15271 16.7652C8.05221 16.5226 8.00049 16.2625 8.00049 15.9999C8.00049 15.7373 8.05221 15.4773 8.15271 15.2347C8.2532 14.9921 8.4005 14.7716 8.58619 14.5859C8.77188 14.4003 8.99232 14.253 9.23493 14.1525C9.47755 14.052 9.73758 14.0002 10.0002 14.0002C10.2628 14.0002 10.5228 14.052 10.7654 14.1525C11.0081 14.253 11.2285 14.4003 11.4142 14.5859L20.0002 23.1719L28.5862 14.5859C28.7719 14.4003 28.9923 14.253 29.2349 14.1525C29.4776 14.052 29.7376 14.0002 30.0002 14.0002C30.2628 14.0002 30.5228 14.052 30.7654 14.1525C31.0081 14.253 31.2285 14.4003 31.4142 14.5859C31.5999 14.7716 31.7472 14.9921 31.8477 15.2347C31.9482 15.4773 31.9999 15.7373 31.9999 15.9999C31.9999 16.2625 31.9482 16.5226 31.8477 16.7652C31.7472 17.0078 31.5999 17.2283 31.4142 17.4139L21.4142 27.4139C21.2287 27.5999 21.0083 27.7475 20.7657 27.848C20.523 27.9486 20.2629 28.0002 20.0002 27.9999Z" fill="#1DBF73"/>
</svg>
