<svg width="24" height="24" viewBox="0 0 24 24" fill="none" xmlns="http://www.w3.org/2000/svg">
<path d="M11.9999 0C12.3181 0 12.6234 0.126428 12.8484 0.351472C13.0734 0.576516 13.1999 0.88174 13.1999 1.2V3.6384L13.1987 3.6636L13.1963 3.6996C14.8746 3.9829 16.3984 4.85145 17.4974 6.1512C18.5964 7.45095 19.1995 9.09791 19.1999 10.8C19.1999 14.5116 19.9499 15.9744 21.1187 18.252L21.1595 18.3336C21.3635 18.7296 21.0755 19.2 20.6291 19.2H3.37068C3.2687 19.2001 3.1684 19.174 3.07941 19.1242C2.99042 19.0744 2.91572 19.0025 2.86247 18.9156C2.80923 18.8286 2.77922 18.7294 2.77533 18.6275C2.77145 18.5256 2.79381 18.4244 2.84028 18.3336L2.88108 18.252C4.04988 15.9744 4.79988 14.5116 4.79988 10.8C4.79996 9.0977 5.40298 7.45046 6.50199 6.15046C7.60099 4.85046 9.12493 3.98174 10.8035 3.6984L10.8011 3.6504C10.8003 3.63361 10.7999 3.61681 10.7999 3.6V1.2C10.7999 0.88174 10.9263 0.576516 11.1514 0.351472C11.3764 0.126428 11.6816 0 11.9999 0V0ZM14.3999 21.6C14.3999 22.2365 14.147 22.847 13.6969 23.2971C13.2468 23.7471 12.6364 24 11.9999 24C11.3634 24 10.7529 23.7471 10.3028 23.2971C9.85273 22.847 9.59988 22.2365 9.59988 21.6H14.3999Z" fill="#B0AAD0"/>
</svg>
