<svg width="84" height="92" viewBox="0 0 84 92" fill="none" xmlns="http://www.w3.org/2000/svg">
<g filter="url(#filter0_f_618_3726)">
<rect x="20" y="44.8687" width="43.2066" height="26.5887" fill="#FBA457" fill-opacity="0.5"/>
</g>
<rect x="20" y="44.8687" width="43.2066" height="26.5887" fill="#FBA457"/>
<path d="M79.0092 74.9894H74.3384L74.7689 74.4765C76.9742 71.8503 77.6599 68.3344 76.6032 65.072L72.3833 52.043C71.3246 48.7743 68.704 46.3199 65.3731 45.4773L63.2761 44.9469C62.4522 43.7902 61.1572 42.9911 59.6727 42.8345L59.674 37.6453C59.6742 36.9734 59.1297 36.4288 58.458 36.4286C57.7863 36.4286 57.2416 36.9729 57.2414 37.6446L57.2401 42.8058H54.8113L51.8028 42.0448C51.0413 41.852 50.4745 41.2256 50.3589 40.4487L49.6677 35.8066C52.4558 33.6119 54.5212 30.6554 55.1448 27.1229H56.1482C56.5308 27.1229 56.899 27.0609 57.2441 26.948L57.2429 31.9485C57.2427 32.6203 57.7872 33.1649 58.4588 33.1651C59.1305 33.1651 59.6753 32.6208 59.6755 31.9491C59.6761 30.9791 59.6795 19.615 59.6795 15.8701C59.6872 7.10157 52.5934 0 43.8232 0H39.3831L39.331 0.000162284C39.3215 0.000162284 39.312 0.000973707 39.3023 0.000973707C30.5622 0.0443036 23.5192 7.13532 23.5266 15.8695C23.5266 19.9543 23.5242 15.7572 23.5336 42.8343C22.0492 42.9911 20.7542 43.79 19.9303 44.9468L17.8332 45.4771C14.5023 46.3197 11.8818 48.7741 10.823 52.0428L6.60313 65.0718C5.5465 68.3344 6.23215 71.8501 8.43727 74.4762L8.86797 74.9892H4.1971C1.96391 74.9892 0.146973 76.8061 0.146973 79.0393C0.146973 81.2727 1.96375 83.0896 4.1971 83.0896H79.0094C81.2426 83.0896 83.0595 81.2727 83.0595 79.0395C83.0594 76.8063 81.2426 74.9894 79.0092 74.9894ZM70.069 52.7923L74.2889 65.8213C75.0857 68.2812 74.5687 70.9319 72.9059 72.9121L71.162 74.9894H68.921C69.1685 74.3247 69.2993 73.6158 69.2993 72.8891C69.2993 71.4983 68.1678 70.3669 66.7771 70.3669H64.2172V47.8872C64.2172 47.8221 64.2148 47.7575 64.2123 47.693C64.3733 47.7769 68.612 48.2937 70.069 52.7923ZM66.7772 72.7995C66.8266 72.7995 66.8666 72.8396 66.8666 72.8889C66.8666 73.6513 66.6242 74.3801 66.1824 74.9892H17.0239C16.5822 74.38 16.3397 73.6512 16.3397 72.8889C16.3397 72.8394 16.3798 72.7995 16.4291 72.7995H66.7772ZM57.245 23.6307C57.224 24.2184 56.7407 24.6901 56.1482 24.6901H55.336L55.3483 19.7598H56.15C56.7464 19.7598 57.2323 20.2385 57.2458 20.8316L57.245 23.6307ZM35.9985 5.83153C35.9985 3.97159 37.4841 2.45342 39.3229 2.43427C39.343 2.43427 39.363 2.43281 39.3831 2.43281H43.8232C51.2463 2.43281 57.2534 8.44301 57.2469 15.8688L57.2466 17.3271C55.5741 17.3271 52.3991 17.3271 47.4217 17.3271C41.123 17.3271 35.9987 12.2027 35.9987 5.90391L35.9985 5.83153ZM36.3745 14.2556C38.9067 17.5967 42.9157 19.7598 47.4216 19.7598H52.9154L52.9024 24.9467C52.9024 29.0747 50.4852 32.2117 47.7599 34.2151C47.7421 34.2251 44.4935 36.6972 41.603 36.7777C38.9329 36.7032 35.5866 34.2949 35.4489 34.2165C32.7225 32.2125 30.3036 29.0736 30.3036 24.941C30.276 18.8545 30.3028 24.7472 30.2741 18.4112C30.2713 17.789 30.7739 17.2838 31.3965 17.2838C33.5592 17.2839 35.4388 16.053 36.3745 14.2556ZM48.793 42.8058H34.4133C34.8471 42.2331 35.1431 41.5513 35.254 40.8071L35.7742 37.3124C37.9808 38.571 40.1283 39.1797 41.5772 39.2107C41.586 39.2108 41.5946 39.211 41.6033 39.211C41.6121 39.211 41.6207 39.2108 41.6295 39.2107C43.0783 39.1797 45.2259 38.5711 47.4324 37.3124L47.9527 40.8071C48.0632 41.5513 48.3592 42.2331 48.793 42.8058ZM27.0583 27.1229H28.062C28.6852 30.6518 30.747 33.6088 33.5388 35.8066L32.8476 40.4487C32.7321 41.2256 32.1652 41.852 31.4039 42.0446L28.395 42.8056H25.9663L25.9622 26.948C26.3075 27.0611 26.6756 27.1229 27.0583 27.1229ZM25.9614 23.6307L25.9607 20.8316C25.9742 20.2385 26.4601 19.7598 27.0565 19.7598H27.8476L27.87 24.6901H27.0583C26.4656 24.6903 25.9823 24.2184 25.9614 23.6307ZM34.0323 3.54121C33.7325 4.24504 33.5659 5.01913 33.5659 5.83137C33.5823 5.99803 33.4511 8.30718 34.5735 11.0819V11.6743C34.5735 13.426 33.1483 14.8511 31.3966 14.8511C29.7971 14.8511 28.4633 15.899 28.0099 17.3269H27.0565C26.6737 17.3269 26.3053 17.3889 25.9599 17.5022L25.9594 15.868C25.9546 10.2961 29.3202 5.58989 34.0323 3.54121ZM8.91763 65.8214L13.1375 52.7924C14.5939 48.2958 18.8301 47.7785 18.9942 47.6931C18.9918 47.7577 18.9893 47.8221 18.9893 47.8874L18.9892 60.7827C18.9892 61.4545 19.5338 60.7827 20.2055 60.7827C20.8773 60.7827 21.4218 61.4545 21.4218 60.7827L21.422 47.8874C21.422 46.4268 22.6102 45.2386 24.0708 45.2386H59.1359C60.5965 45.2386 61.7847 46.4268 61.7847 47.8874V70.3669H21.4218V60.7827C21.4218 60.1108 20.8772 59.5663 20.2055 59.5663C19.5336 59.5663 18.9892 60.1108 18.9892 60.7827V70.3669H16.4293C15.0385 70.3669 13.9071 71.4983 13.9071 72.8891C13.9071 73.6158 14.038 74.3248 14.2854 74.9894H12.0445L10.3005 72.912C8.63785 70.9321 8.12082 68.2812 8.91763 65.8214ZM79.0092 80.6568H4.1971C3.30519 80.6568 2.57978 79.9313 2.57978 79.0395C2.57978 78.1476 3.30535 77.4222 4.1971 77.4222H79.0094C79.9013 77.4222 80.6267 78.1478 80.6267 79.0395C80.6267 79.9313 79.9012 80.6568 79.0092 80.6568Z" fill="#222222"/>
<ellipse cx="41.6034" cy="57.8304" rx="3.32359" ry="3.32358" fill="#F6FAFD"/>
<path d="M41.603 63.5064C44.6742 63.5064 47.1727 61.0077 47.1727 57.9366C47.1727 54.8656 44.6742 52.3667 41.603 52.3667C38.5317 52.3667 36.0332 54.8654 36.0332 57.9365C36.0332 61.0075 38.5317 63.5064 41.603 63.5064ZM41.603 54.7995C43.3327 54.7995 44.7401 56.2067 44.7401 57.9366C44.7401 59.6666 43.3327 61.0737 41.603 61.0737C39.8732 61.0737 38.4658 59.6666 38.4658 57.9366C38.4658 56.2067 39.8732 54.7995 41.603 54.7995Z" fill="#222222"/>
<defs>
<filter id="filter0_f_618_3726" x="0" y="24.8687" width="83.2065" height="66.5889" filterUnits="userSpaceOnUse" color-interpolation-filters="sRGB">
<feFlood flood-opacity="0" result="BackgroundImageFix"/>
<feBlend mode="normal" in="SourceGraphic" in2="BackgroundImageFix" result="shape"/>
<feGaussianBlur stdDeviation="10" result="effect1_foregroundBlur_618_3726"/>
</filter>
</defs>
</svg>
