<svg width="83" height="99" viewBox="0 0 83 99" fill="none" xmlns="http://www.w3.org/2000/svg">
<g filter="url(#filter0_f_618_3745)">
<path d="M21 63.9307V20H62V63.9307H54.4074L49.8519 71H32.642L28.5926 63.9307H21Z" fill="#FFC95F" fill-opacity="0.5"/>
</g>
<path d="M21 63.9307V20H62V63.9307H54.4074L49.8519 71H32.642L28.5926 63.9307H21Z" fill="#FFC95F"/>
<path d="M31.6196 27.0317H27.123C26.4516 27.0317 25.9072 27.5761 25.9072 28.2476C25.9072 28.919 26.4516 29.4634 27.123 29.4634H31.6196C32.2911 29.4634 32.8355 28.919 32.8355 28.2476C32.8355 27.5761 32.2911 27.0317 31.6196 27.0317Z" fill="#222222"/>
<path d="M38.4116 29.4634H55.877C56.5486 29.4634 57.0928 28.919 57.0928 28.2476C57.0928 27.5761 56.5486 27.0317 55.877 27.0317H38.4116C37.7402 27.0317 37.1958 27.5761 37.1958 28.2476C37.1958 28.919 37.7402 29.4634 38.4116 29.4634Z" fill="#222222"/>
<path d="M31.6196 34.0112H27.123C26.4516 34.0112 25.9072 34.5556 25.9072 35.2271C25.9072 35.8985 26.4516 36.4429 27.123 36.4429H31.6196C32.2911 36.4429 32.8355 35.8985 32.8355 35.2271C32.8355 34.5556 32.2911 34.0112 31.6196 34.0112Z" fill="#222222"/>
<path d="M38.4116 36.4429H55.877C56.5486 36.4429 57.0928 35.8985 57.0928 35.2271C57.0928 34.5556 56.5486 34.0112 55.877 34.0112H38.4116C37.7402 34.0112 37.1958 34.5556 37.1958 35.2271C37.1958 35.8985 37.7402 36.4429 38.4116 36.4429Z" fill="#222222"/>
<path d="M31.6196 40.9902H27.123C26.4516 40.9902 25.9072 41.5346 25.9072 42.2061C25.9072 42.8775 26.4516 43.4219 27.123 43.4219H31.6196C32.2911 43.4219 32.8355 42.8775 32.8355 42.2061C32.8355 41.5346 32.2911 40.9902 31.6196 40.9902Z" fill="#222222"/>
<path d="M38.4116 43.4219H55.877C56.5486 43.4219 57.0928 42.8775 57.0928 42.2061C57.0928 41.5346 56.5486 40.9902 55.877 40.9902H38.4116C37.7402 40.9902 37.1958 41.5346 37.1958 42.2061C37.1958 42.8775 37.7402 43.4219 38.4116 43.4219Z" fill="#222222"/>
<path d="M57.4699 84.0522V78.1096C57.4699 76.9505 56.5269 76.0073 55.3676 76.0073H27.6323C26.4733 76.0073 25.5303 76.9503 25.5303 78.1096V84.0522C25.5303 85.2112 26.4733 86.1544 27.6323 86.1544H55.3676C56.5269 86.1544 57.4699 85.2112 57.4699 84.0522ZM55.0382 83.7228H27.9619V78.439H55.0382V83.7228Z" fill="#222222"/>
<path d="M31.6196 47.9697H27.123C26.4516 47.9697 25.9072 48.5141 25.9072 49.1855C25.9072 49.857 26.4516 50.4014 27.123 50.4014H31.6196C32.2911 50.4014 32.8355 49.857 32.8355 49.1855C32.8355 48.5141 32.2911 47.9697 31.6196 47.9697Z" fill="#222222"/>
<path d="M38.4116 50.4014H55.877C56.5486 50.4014 57.0928 49.857 57.0928 49.1855C57.0928 48.5141 56.5486 47.9697 55.877 47.9697H38.4116C37.7402 47.9697 37.1958 48.5141 37.1958 49.1855C37.1958 49.857 37.7402 50.4014 38.4116 50.4014Z" fill="#222222"/>
<path d="M31.6196 54.9492H27.123C26.4516 54.9492 25.9072 55.4936 25.9072 56.165C25.9072 56.8365 26.4516 57.3809 27.123 57.3809H31.6196C32.2911 57.3809 32.8355 56.8365 32.8355 56.165C32.8355 55.4936 32.2911 54.9492 31.6196 54.9492Z" fill="#222222"/>
<path d="M38.4116 57.3809H55.877C56.5486 57.3809 57.0928 56.8365 57.0928 56.165C57.0928 55.4936 56.5486 54.9492 55.877 54.9492H38.4116C37.7402 54.9492 37.1958 55.4936 37.1958 56.165C37.1958 56.8365 37.7402 57.3809 38.4116 57.3809Z" fill="#222222"/>
<path d="M32.2808 90.0713C31.6093 90.0713 31.0649 90.6155 31.0649 91.2871C31.0649 91.9587 31.6093 92.5029 32.2808 92.5029H50.7192C51.3909 92.5029 51.9351 91.9587 51.9351 91.2871C51.9351 90.6155 51.3909 90.0713 50.7192 90.0713H32.2808Z" fill="#222222"/>
<path d="M81.7842 63.5686H76.5959L79.7173 42.4334C79.8152 41.7691 79.3563 41.1512 78.6921 41.0531C78.0278 40.9544 77.41 41.4139 77.3116 42.0783L74.1376 63.5686H63.8987V25.6973L79.0525 28.1372C79.1603 28.1545 79.225 28.2165 79.2603 28.2654C79.2956 28.3144 79.3341 28.3953 79.3143 28.5186L78.0354 37.1764C77.9375 37.8407 78.3964 38.4587 79.0606 38.5568C79.1207 38.5657 79.1805 38.5701 79.2397 38.5701C79.8324 38.5701 80.3516 38.1358 80.4409 37.5317L81.7172 28.8895C81.8341 28.1641 81.6613 27.4367 81.2309 26.8411C80.8007 26.2455 80.1641 25.8532 79.4386 25.7365L63.8987 23.2342V20.7508C63.8987 19.2341 62.6647 18 61.1478 18H39.9259C39.2545 18 38.7101 18.5444 38.7101 19.2158C38.7101 19.8873 39.2545 20.4316 39.9259 20.4316H61.148C61.324 20.4316 61.4672 20.5748 61.4672 20.7508V63.5686H55.0209C53.486 63.5686 52.0938 64.5346 51.5568 65.9725L50.3507 69.2014C50.1667 69.6938 49.6899 70.0246 49.1644 70.0246H33.836C33.3104 70.0246 32.8336 69.6938 32.6496 69.2014L31.4434 65.9724C30.9063 64.5346 29.5141 63.5686 27.9793 63.5686H21.533V20.7508C21.533 20.5749 21.6761 20.4316 21.8522 20.4316H39.9259C40.5974 20.4316 39.9259 19.8873 39.9259 19.2158C39.9259 18.5444 40.6715 18 40 18H21.8522C20.3355 18 19.1013 19.234 19.1013 20.7508V23.2342L3.56122 25.7363C2.83578 25.8531 2.19934 26.2454 1.76878 26.841C1.33838 27.4365 1.16573 28.1639 1.28002 28.8738L6.40429 63.5686H1.21582C0.544363 63.5686 0 64.1128 0 64.7844V87.2406C0 93.5363 5.12201 98.6583 11.4177 98.6583H16.6853C17.3567 98.6583 17.9011 98.1141 17.9011 97.4425C17.9011 96.7709 17.3567 96.2267 16.6853 96.2267H11.4177C6.46281 96.2267 2.43164 92.1957 2.43164 87.2408V66.0003H27.9791C28.5047 66.0003 28.9814 66.331 29.1653 66.8235L30.3715 70.0525C30.9087 71.4903 32.3009 72.4563 33.8358 72.4563H49.1642C50.6991 72.4563 52.0913 71.4903 52.6283 70.0523L53.8344 66.8235C54.0184 66.3311 54.4952 66.0003 55.0207 66.0003H80.5682V87.2406C80.5682 92.1955 76.5372 96.2267 71.5821 96.2267H21.5464C20.875 96.2267 20.3306 96.7709 20.3306 97.4425C20.3306 98.1141 20.875 98.6583 21.5464 98.6583H71.5823C77.878 98.6583 83 93.5363 83 87.2406V64.7844C83 64.113 82.4556 63.5686 81.7842 63.5686ZM3.68329 28.5031C3.66594 28.3951 3.70436 28.3142 3.7397 28.2654C3.77504 28.2165 3.83972 28.1545 3.94769 28.1372L19.1013 25.6973V63.5686H8.8622L3.68329 28.5031Z" fill="#222222"/>
<defs>
<filter id="filter0_f_618_3745" x="1" y="0" width="81" height="91" filterUnits="userSpaceOnUse" color-interpolation-filters="sRGB">
<feFlood flood-opacity="0" result="BackgroundImageFix"/>
<feBlend mode="normal" in="SourceGraphic" in2="BackgroundImageFix" result="shape"/>
<feGaussianBlur stdDeviation="10" result="effect1_foregroundBlur_618_3745"/>
</filter>
</defs>
</svg>
