<svg width="50" height="50" viewBox="0 0 50 50" fill="none" xmlns="http://www.w3.org/2000/svg">
<g clip-path="url(#clip0_618_3841)">
<path d="M25 50C38.8071 50 50 38.8071 50 25C50 11.1929 38.8071 0 25 0C11.1929 0 0 11.1929 0 25C0 38.8071 11.1929 50 25 50Z" fill="#EAB14D"/>
<path d="M25.0002 0C24.5539 0 24.1104 0.012207 23.6699 0.0352539C36.8586 0.726855 47.3398 11.6392 47.3398 25C47.3398 38.3608 36.8586 49.2731 23.6699 49.9647C24.1104 49.9878 24.5539 50 25.0002 50C38.8073 50 50.0002 38.8071 50.0002 25C50.0002 11.1929 38.8073 0 25.0002 0Z" fill="#E49542"/>
<path d="M25.0002 44.4813C35.7593 44.4813 44.4813 35.7593 44.4813 25.0002C44.4813 14.2411 35.7593 5.51904 25.0002 5.51904C14.2411 5.51904 5.51904 14.2411 5.51904 25.0002C5.51904 35.7593 14.2411 44.4813 25.0002 44.4813Z" fill="#F4FBFF"/>
<path d="M25 5.51904C24.4604 5.51904 23.9264 5.54199 23.3979 5.58496C33.4076 6.3998 41.2772 14.7806 41.2772 25.0002C41.2772 35.2198 33.4076 43.6005 23.3979 44.4154C23.9264 44.4585 24.4604 44.4814 25 44.4814C35.7592 44.4814 44.4812 35.7594 44.4812 25.0003C44.4812 14.2412 35.7592 5.51904 25 5.51904Z" fill="#DAF1F4"/>
<path d="M24.9996 11.5148C24.5829 11.5148 24.2451 11.1771 24.2451 10.7604V9.65293C24.2451 9.23623 24.5829 8.89844 24.9996 8.89844C25.4163 8.89844 25.7542 9.23623 25.7542 9.65293V10.7604C25.7542 11.1771 25.4163 11.5148 24.9996 11.5148Z" fill="#2B4D66"/>
<path d="M35.028 15.7027C34.8348 15.7027 34.6418 15.629 34.4944 15.4818C34.1998 15.187 34.1998 14.7094 34.4945 14.4147L35.2776 13.6317C35.5722 13.3369 36.05 13.337 36.3447 13.6317C36.6393 13.9264 36.6393 14.404 36.3446 14.6987L35.5615 15.4818C35.4141 15.629 35.2211 15.7027 35.028 15.7027Z" fill="#2B4D66"/>
<path d="M40.2647 25.7546H39.1573C38.7405 25.7546 38.4028 25.4168 38.4028 25.0001C38.4028 24.5834 38.7406 24.2456 39.1573 24.2456H40.2647C40.6815 24.2456 41.0192 24.5834 41.0192 25.0001C41.0192 25.4168 40.6814 25.7546 40.2647 25.7546Z" fill="#2B4D66"/>
<path d="M35.7529 36.566C35.5598 36.566 35.3667 36.4923 35.2193 36.345L34.4363 35.562C34.1417 35.2673 34.1417 34.7897 34.4363 34.4948C34.731 34.2003 35.2087 34.2003 35.5035 34.4948L36.2865 35.2778C36.5811 35.5726 36.5811 36.0502 36.2865 36.345C36.1391 36.4923 35.946 36.566 35.7529 36.566Z" fill="#2B4D66"/>
<path d="M24.9176 41.0197C24.5009 41.0197 24.1631 40.6819 24.1631 40.2652V39.1578C24.1631 38.741 24.5009 38.4033 24.9176 38.4033C25.3343 38.4033 25.6721 38.7411 25.6721 39.1578V40.2652C25.6721 40.6819 25.3343 41.0197 24.9176 41.0197Z" fill="#2B4D66"/>
<path d="M14.1066 36.5075C13.9135 36.5075 13.7203 36.4337 13.5731 36.2864C13.2783 35.9917 13.2784 35.514 13.5731 35.2193L14.3562 34.4363C14.6509 34.1417 15.1285 34.1416 15.4233 34.4364C15.7179 34.731 15.7179 35.2087 15.4232 35.5034L14.64 36.2865C14.4928 36.4338 14.2996 36.5075 14.1066 36.5075Z" fill="#2B4D66"/>
<path d="M10.7599 25.6726H9.65244C9.23574 25.6726 8.89795 25.3348 8.89795 24.9181C8.89795 24.5014 9.23574 24.1636 9.65244 24.1636H10.7599C11.1766 24.1636 11.5144 24.5014 11.5144 24.9181C11.5145 25.3348 11.1766 25.6726 10.7599 25.6726Z" fill="#2B4D66"/>
<path d="M14.9478 15.6447C14.7547 15.6447 14.5616 15.571 14.4143 15.4237L13.6312 14.6406C13.3365 14.3459 13.3364 13.8683 13.6311 13.5736C13.9258 13.2789 14.4034 13.2788 14.6982 13.5735L15.4813 14.3566C15.7759 14.6512 15.776 15.1289 15.4814 15.4237C15.3339 15.5709 15.1408 15.6447 14.9478 15.6447Z" fill="#2B4D66"/>
<path d="M25.0001 25.7545H18.5919C18.1752 25.7545 17.8374 25.4166 17.8374 24.9999C17.8374 24.5832 18.1752 24.2454 18.5919 24.2454H24.2455V14.6461C24.2455 14.2294 24.5833 13.8916 25 13.8916C25.4167 13.8916 25.7545 14.2294 25.7545 14.6461V24.9999C25.7546 25.4166 25.4168 25.7545 25.0001 25.7545Z" fill="#2B4D66"/>
<path d="M32.7406 29.7354C32.6244 29.7354 32.5066 29.7084 32.3962 29.6517L24.6548 25.6708C24.2841 25.4803 24.1382 25.0254 24.3288 24.6548C24.5193 24.2842 24.9742 24.1382 25.3449 24.3288L33.0863 28.3096C33.4569 28.5002 33.6029 28.9551 33.4123 29.3256C33.2784 29.5858 33.0143 29.7354 32.7406 29.7354Z" fill="#DA4A54"/>
<path d="M25.0002 27.0141C26.1124 27.0141 27.0141 26.1124 27.0141 25.0002C27.0141 23.888 26.1124 22.9863 25.0002 22.9863C23.888 22.9863 22.9863 23.888 22.9863 25.0002C22.9863 26.1124 23.888 27.0141 25.0002 27.0141Z" fill="#365E7D"/>
</g>
<defs>
<clipPath id="clip0_618_3841">
<rect width="50" height="50" fill="white"/>
</clipPath>
</defs>
</svg>
