<svg width="50" height="50" viewBox="0 0 50 50" fill="none" xmlns="http://www.w3.org/2000/svg">
<circle cx="25" cy="25" r="25" fill="#222222"/>
<path fill-rule="evenodd" clip-rule="evenodd" d="M19.709 12.2435C21.0775 12.1805 21.5138 12.1665 24.9998 12.1665C28.4858 12.1665 28.9222 12.1817 30.2895 12.2435C31.6568 12.3053 32.5902 12.5235 33.4068 12.8397C34.262 13.1628 35.0378 13.668 35.6795 14.3213C36.3328 14.9618 36.8368 15.7365 37.1588 16.5928C37.4762 17.4095 37.6932 18.3428 37.7562 19.7078C37.8192 21.0787 37.8332 21.515 37.8332 24.9998C37.8332 28.4858 37.818 28.9222 37.7562 30.2907C37.6943 31.6557 37.4762 32.589 37.1588 33.4057C36.8368 34.2621 36.332 35.0381 35.6795 35.6795C35.0378 36.3328 34.262 36.8368 33.4068 37.1588C32.5902 37.4762 31.6568 37.6932 30.2918 37.7562C28.9222 37.8192 28.4858 37.8332 24.9998 37.8332C21.5138 37.8332 21.0775 37.818 19.709 37.7562C18.344 37.6943 17.4107 37.4762 16.594 37.1588C15.7376 36.8368 14.9616 36.332 14.3202 35.6795C13.6673 35.0386 13.162 34.263 12.8397 33.4068C12.5235 32.5902 12.3065 31.6568 12.2435 30.2918C12.1805 28.921 12.1665 28.4847 12.1665 24.9998C12.1665 21.5138 12.1817 21.0775 12.2435 19.7102C12.3053 18.3428 12.5235 17.4095 12.8397 16.5928C13.1625 15.7366 13.6681 14.961 14.3213 14.3202C14.9619 13.6674 15.7371 13.1622 16.5928 12.8397C17.4095 12.5235 18.3428 12.3065 19.7078 12.2435H19.709ZM30.1857 14.5535C28.8323 14.4917 28.4263 14.4788 24.9998 14.4788C21.5733 14.4788 21.1673 14.4917 19.814 14.5535C18.5622 14.6107 17.8832 14.8195 17.4305 14.9957C16.832 15.229 16.4038 15.5055 15.9547 15.9547C15.5289 16.3689 15.2012 16.8732 14.9957 17.4305C14.8195 17.8832 14.6107 18.5622 14.5535 19.814C14.4917 21.1673 14.4788 21.5733 14.4788 24.9998C14.4788 28.4263 14.4917 28.8323 14.5535 30.1857C14.6107 31.4375 14.8195 32.1165 14.9957 32.5692C15.201 33.1257 15.5288 33.6308 15.9547 34.045C16.3688 34.4708 16.874 34.7987 17.4305 35.004C17.8832 35.1802 18.5622 35.389 19.814 35.4462C21.1673 35.508 21.5722 35.5208 24.9998 35.5208C28.4275 35.5208 28.8323 35.508 30.1857 35.4462C31.4375 35.389 32.1165 35.1802 32.5692 35.004C33.1677 34.7707 33.5958 34.4942 34.045 34.045C34.4708 33.6308 34.7987 33.1257 35.004 32.5692C35.1802 32.1165 35.389 31.4375 35.4462 30.1857C35.508 28.8323 35.5208 28.4263 35.5208 24.9998C35.5208 21.5733 35.508 21.1673 35.4462 19.814C35.389 18.5622 35.1802 17.8832 35.004 17.4305C34.7707 16.832 34.4942 16.4038 34.045 15.9547C33.6308 15.5289 33.1265 15.2012 32.5692 14.9957C32.1165 14.8195 31.4375 14.6107 30.1857 14.5535ZM23.3607 28.956C24.2761 29.3371 25.2954 29.3885 26.2446 29.1015C27.1937 28.8145 28.0138 28.2069 28.5647 27.3825C29.1156 26.558 29.3632 25.5679 29.2652 24.5811C29.1672 23.5944 28.7297 22.6723 28.0273 21.9723C27.5796 21.5249 27.0383 21.1823 26.4422 20.9692C25.8462 20.7561 25.2103 20.6778 24.5804 20.7399C23.9505 20.802 23.3422 21.003 22.7993 21.3285C22.2564 21.6539 21.7924 22.0957 21.4407 22.622C21.089 23.1483 20.8584 23.746 20.7654 24.3721C20.6725 24.9982 20.7195 25.6372 20.9031 26.2429C21.0868 26.8487 21.4024 27.4062 21.8273 27.8753C22.2523 28.3445 22.776 28.7136 23.3607 28.956ZM20.3355 20.3355C20.948 19.723 21.6752 19.2371 22.4755 18.9056C23.2758 18.5741 24.1336 18.4035 24.9998 18.4035C25.8661 18.4035 26.7238 18.5741 27.5242 18.9056C28.3245 19.2371 29.0516 19.723 29.6642 20.3355C30.2767 20.948 30.7626 21.6752 31.0941 22.4755C31.4256 23.2758 31.5962 24.1336 31.5962 24.9998C31.5962 25.8661 31.4256 26.7238 31.0941 27.5242C30.7626 28.3245 30.2767 29.0516 29.6642 29.6642C28.4271 30.9012 26.7493 31.5962 24.9998 31.5962C23.2504 31.5962 21.5726 30.9012 20.3355 29.6642C19.0984 28.4271 18.4035 26.7493 18.4035 24.9998C18.4035 23.2504 19.0984 21.5726 20.3355 20.3355ZM33.0592 19.3858C33.211 19.2427 33.3325 19.0705 33.4165 18.8795C33.5006 18.6885 33.5454 18.4826 33.5485 18.2739C33.5515 18.0653 33.5127 17.8581 33.4342 17.6648C33.3558 17.4714 33.2393 17.2958 33.0918 17.1482C32.9442 17.0007 32.7686 16.8842 32.5752 16.8058C32.3819 16.7273 32.1747 16.6885 31.9661 16.6915C31.7574 16.6946 31.5515 16.7394 31.3605 16.8235C31.1695 16.9075 30.9974 17.029 30.8542 17.1808C30.5757 17.476 30.4232 17.8681 30.4292 18.2739C30.4351 18.6797 30.5989 19.0672 30.8859 19.3542C31.1728 19.6411 31.5603 19.8049 31.9661 19.8109C32.3719 19.8168 32.764 19.6643 33.0592 19.3858Z" fill="#F7F6FF"/>
</svg>
