<svg width="50" height="50" viewBox="0 0 50 50" fill="none" xmlns="http://www.w3.org/2000/svg">
<g clip-path="url(#clip0_618_3794)">
<path d="M47.7272 34.5455H2.27275C1.02275 34.5455 0 33.5228 0 32.2728V7.27275C0 6.02275 1.02275 5 2.27275 5H47.7273C48.9773 5 50.0001 6.02275 50.0001 7.27275V32.2728C50 33.5228 48.9772 34.5455 47.7272 34.5455Z" fill="#0E9347"/>
<path d="M42.0452 25.4546C39.4316 25.4546 37.0452 26.7046 35.6816 28.75C34.5452 28.1819 33.2952 27.7273 31.818 27.7273C27.8407 27.7273 24.5452 30.6819 23.9771 34.5455H47.7271C48.8634 34.5455 49.7725 33.7501 49.9998 32.6137C49.5452 28.6364 46.1361 25.4546 42.0452 25.4546Z" fill="#0D8944"/>
<path d="M43.182 32.2728H6.81836C6.81836 29.7728 4.77295 27.7274 2.27295 27.7274V11.8184C4.77295 11.8184 6.81836 9.77295 6.81836 7.27295H43.182C43.182 9.77295 45.2274 11.8184 47.7274 11.8184V27.7274C45.2274 27.7274 43.182 29.7728 43.182 32.2728Z" fill="#3BB54A"/>
<path d="M42.0455 25.4546C39.4318 25.4546 37.0455 26.7046 35.6818 28.75C34.5455 28.1819 33.2955 27.7273 31.8183 27.7273C28.6364 27.7273 25.9092 29.5455 24.6592 32.2728H43.1819C43.1819 29.7728 45.1138 27.8409 47.6138 27.7273C46.1364 26.3637 44.2047 25.4546 42.0455 25.4546Z" fill="#0E9347"/>
<path d="M25.0001 29.9999C30.0209 29.9999 34.091 25.421 34.091 19.7727C34.091 14.1243 30.0209 9.54541 25.0001 9.54541C19.9793 9.54541 15.9092 14.1243 15.9092 19.7727C15.9092 25.421 19.9793 29.9999 25.0001 29.9999Z" fill="#0E9347"/>
<path d="M11.3636 22.0455C12.6188 22.0455 13.6363 21.028 13.6363 19.7728C13.6363 18.5175 12.6188 17.5 11.3636 17.5C10.1084 17.5 9.09082 18.5175 9.09082 19.7728C9.09082 21.028 10.1084 22.0455 11.3636 22.0455Z" fill="#0E9347"/>
<path d="M38.636 22.0455C39.8912 22.0455 40.9088 21.028 40.9088 19.7728C40.9088 18.5175 39.8912 17.5 38.636 17.5C37.3808 17.5 36.3633 18.5175 36.3633 19.7728C36.3633 21.028 37.3808 22.0455 38.636 22.0455Z" fill="#0E9347"/>
<path d="M26.1363 18.6367H23.8636C23.1817 18.6367 22.7272 18.1821 22.7272 17.5004C22.7272 16.8186 23.1818 16.3641 23.8636 16.3641H27.2727C27.9545 16.3641 28.409 15.9095 28.409 15.2277C28.409 14.5459 27.9544 14.0914 27.2727 14.0914H26.1363C26.1363 13.4096 25.6817 12.9551 25 12.9551C24.3182 12.9551 23.8637 13.4097 23.8637 14.0914C21.9318 14.0914 20.4546 15.5687 20.4546 17.5005C20.4546 19.4323 21.9318 20.9096 23.8637 20.9096H26.1364C26.8183 20.9096 27.2728 21.3642 27.2728 22.0459C27.2728 22.7277 26.8182 23.1822 26.1364 23.1822H22.7273C22.0455 23.1822 21.591 23.6368 21.591 24.3186C21.591 25.0004 22.0456 25.4549 22.7273 25.4549H23.8637C23.8637 26.1367 24.3183 26.5912 25 26.5912C25.6818 26.5912 26.1363 26.1366 26.1363 25.4549C28.0682 25.4549 29.5454 23.9776 29.5454 22.0458C29.5454 20.114 28.0682 18.6367 26.1363 18.6367Z" fill="#89C763"/>
<path d="M29.5454 43.6367C33.9386 43.6367 37.5 40.0753 37.5 35.6821C37.5 31.2889 33.9386 27.7275 29.5454 27.7275C25.1522 27.7275 21.5908 31.2889 21.5908 35.6821C21.5908 40.0753 25.1522 43.6367 29.5454 43.6367Z" fill="#FFCA5D"/>
<path d="M39.773 41.3638C44.1662 41.3638 47.7275 37.8024 47.7275 33.4092C47.7275 29.016 44.1662 25.4546 39.773 25.4546C35.3798 25.4546 31.8184 29.016 31.8184 33.4092C31.8184 37.8024 35.3798 41.3638 39.773 41.3638Z" fill="#F6B545"/>
<path d="M39.773 25.4546C35.3411 25.4546 31.8184 28.9773 31.8184 33.4092C31.8184 37.841 35.3411 41.3638 39.773 41.3638C44.2048 41.3638 47.7275 37.841 47.7275 33.4092C47.7275 28.9773 44.2048 25.4546 39.773 25.4546ZM39.773 39.091C36.5911 39.091 34.0911 36.591 34.0911 33.4092C34.0911 30.2273 36.5911 27.7273 39.773 27.7273C42.9548 27.7273 45.4548 30.2273 45.4548 33.4092C45.4548 36.591 42.9548 39.091 39.773 39.091Z" fill="#FFCB5B"/>
<path d="M39.7729 41.2501C44.2048 41.3638 47.7275 37.7273 47.7275 33.4092H47.6139C47.0457 33.4092 46.5911 33.8638 46.4775 34.4319C46.2503 36.0228 45.4548 37.5001 44.3185 38.5228C43.4094 39.4319 42.1594 40.0001 40.7957 40.2273C40.2274 40.2273 39.7729 40.6819 39.7729 41.2501Z" fill="#F6B545"/>
<path d="M39.773 25.568C35.3411 25.4544 31.8184 29.0908 31.8184 33.409H31.932C32.5002 33.409 32.9548 32.9544 33.0684 32.3862C33.2956 30.7953 34.0911 29.318 35.2274 28.2953C36.1365 27.3862 37.3865 26.818 38.7502 26.5907C39.3184 26.5908 39.773 26.1362 39.773 25.568Z" fill="#FFE27A"/>
<path d="M34.8862 34.2048C34.8862 31.0229 37.3862 28.5229 40.5681 28.5229C41.9317 28.5229 43.1817 28.9775 44.2044 29.8866C43.0681 28.523 41.5908 27.7275 39.7727 27.7275C36.5908 27.7275 34.0908 30.2275 34.0908 33.4094C34.0908 35.2275 34.8862 36.7048 36.1362 37.7275C35.3408 36.8185 34.8862 35.5685 34.8862 34.2048Z" fill="#F19920"/>
<path d="M43.1818 36.9317C43.0681 36.9317 42.9545 36.9317 42.8408 36.8181C42.6136 36.5908 42.6136 36.2499 42.8408 36.0227C43.5227 35.3408 43.8636 34.3181 43.8636 33.409C43.8636 33.0681 44.0908 32.8408 44.4318 32.8408C44.7727 32.8408 44.9999 33.0681 44.9999 33.409C44.9999 34.659 44.5453 35.909 43.7499 36.8181C43.5227 36.9317 43.2953 36.9317 43.1818 36.9317Z" fill="#FFCB5B"/>
<path d="M39.7726 36.8186C39.0907 36.8186 38.6362 36.364 38.6362 35.6822V31.1368C38.6362 30.455 39.0908 30.0005 39.7726 30.0005C40.4543 30.0005 40.9089 30.4551 40.9089 31.1368V35.6822C40.9089 36.364 40.4544 36.8186 39.7726 36.8186Z" fill="#F19920"/>
<path d="M43.9771 40.1139C43.1817 37.2729 41.1362 35.0002 38.5226 33.9775C38.068 31.3639 36.3635 29.0912 34.2044 27.7275C32.8407 29.2048 31.9316 31.1366 31.9316 33.2957C31.9316 37.7275 35.4544 41.2503 39.8862 41.2503C41.3636 41.3639 42.7271 40.9094 43.9771 40.1139Z" fill="#F19920"/>
<path d="M36.1363 37.7272C35.3409 36.7045 34.7727 35.4545 34.7727 34.0909C34.7727 32.5 35.4545 31.0228 36.5908 30C36.3636 29.6591 36.1362 29.4318 35.909 29.2046C34.7727 30.2273 34.0908 31.7046 34.0908 33.4092C34.0909 35.2272 34.8863 36.7045 36.1363 37.7272Z" fill="#E78825"/>
<path d="M38.6362 34.0908V35.6817C38.6362 36.3636 39.0908 36.8181 39.7726 36.8181C40.4543 36.8181 40.9089 36.3635 40.9089 35.6817V35.4545C40.2272 34.8862 39.4317 34.4317 38.6362 34.0908Z" fill="#E78825"/>
<path d="M43.9774 40.1137C43.7502 39.3183 43.5229 38.6364 43.0684 37.9546C42.1593 38.6364 41.023 39.0909 39.773 39.0909C36.5911 39.0909 34.0911 36.5909 34.0911 33.4091C34.0911 31.7045 34.773 30.2272 35.9093 29.2045C35.3411 28.6363 34.773 28.1817 34.0911 27.8408C32.7274 29.3181 31.8184 31.2499 31.8184 33.409C31.8184 37.8408 35.3411 41.3636 39.773 41.3636C41.3639 41.3637 42.7274 40.9092 43.9774 40.1137Z" fill="#F6B545"/>
<path d="M43.6361 39.0908C42.8407 39.659 41.818 39.9999 40.7952 40.2271C40.2271 40.3408 39.7725 40.7953 39.7725 41.3635C41.3634 41.3635 42.7271 40.9089 43.9771 40.1135C43.8635 39.7726 43.7498 39.4317 43.6361 39.0908Z" fill="#F19920"/>
<path d="M34.0911 27.8408C32.7274 29.3181 31.8184 31.2499 31.8184 33.409H31.932C32.5002 33.409 32.9548 32.9544 33.0684 32.3862C33.2956 30.7953 34.0911 29.4316 35.1138 28.409C34.7729 28.2953 34.432 28.0681 34.0911 27.8408Z" fill="#FFCB5B"/>
<path d="M29.5454 43.6367C33.9386 43.6367 37.5 40.0753 37.5 35.6821C37.5 31.2889 33.9386 27.7275 29.5454 27.7275C25.1522 27.7275 21.5908 31.2889 21.5908 35.6821C21.5908 40.0753 25.1522 43.6367 29.5454 43.6367Z" fill="#F6B545"/>
<path d="M28.4092 41.3638C28.4092 42.1592 28.5229 42.841 28.7501 43.6365C28.9773 43.6365 29.3183 43.6365 29.5455 43.6365C33.9773 43.6365 37.5001 40.1138 37.5001 35.6819C37.5001 34.8865 37.3864 34.2047 37.1592 33.4092C36.9319 33.4092 36.591 33.4092 36.3638 33.4092C31.9319 33.4093 28.4092 36.932 28.4092 41.3638Z" fill="#F19920"/>
<path d="M29.5454 27.7275C25.1136 27.7275 21.5908 31.2503 21.5908 35.6821C21.5908 40.114 25.1136 43.6367 29.5454 43.6367C33.9772 43.6367 37.5 40.1139 37.5 35.6821C37.5 31.2504 33.9772 27.7275 29.5454 27.7275ZM29.5454 41.3639C26.3636 41.3639 23.8636 38.8639 23.8636 35.682C23.8636 32.5002 26.3636 30.0002 29.5454 30.0002C32.7272 30.0002 35.2272 32.5002 35.2272 35.682C35.2272 38.8639 32.7272 41.3639 29.5454 41.3639Z" fill="#FFCB5B"/>
<path d="M29.5454 43.5225C33.9772 43.6361 37.5 39.9998 37.5 35.6816H37.3863C36.8182 35.6816 36.3636 36.1362 36.25 36.7044C36.0228 38.2953 35.2272 39.7726 34.0909 40.7953C33.1818 41.7044 31.9318 42.2726 30.5682 42.4999C30 42.4998 29.5454 42.9543 29.5454 43.5225Z" fill="#F6B545"/>
<path d="M29.5454 27.841C25.1136 27.7273 21.5908 31.3637 21.5908 35.6819H21.7045C22.2727 35.6819 22.7272 35.2273 22.8408 34.6591C23.0681 33.0682 23.8636 31.591 24.9999 30.5682C25.909 29.6591 27.159 29.091 28.5227 28.8636C29.0909 28.8636 29.5454 28.4091 29.5454 27.841Z" fill="#FFE27A"/>
<path d="M24.6593 36.4772C24.6593 33.2954 27.1593 30.7954 30.3411 30.7954C31.7048 30.7954 32.9548 31.25 33.9774 32.1591C32.8411 30.7954 31.3638 30 29.5456 30C26.3638 30 23.8638 32.5 23.8638 35.6818C23.8638 37.5 24.6592 38.9772 25.9092 40C25.1139 39.0909 24.6593 37.8409 24.6593 36.4772Z" fill="#F19920"/>
<path d="M32.9547 39.2042C32.841 39.2042 32.7275 39.2042 32.6138 39.0905C32.3865 38.8633 32.3865 38.5224 32.6138 38.2951C33.2956 37.6133 33.6366 36.5905 33.6366 35.6814C33.6366 35.3405 33.8638 35.1133 34.2047 35.1133C34.5456 35.1133 34.7729 35.3405 34.7729 35.6814C34.7729 36.9314 34.3183 38.1814 33.5229 39.0905C33.2955 39.2042 33.0683 39.2042 32.9547 39.2042Z" fill="#FFCB5B"/>
<path d="M29.5455 39.091C28.8637 39.091 28.4092 38.6364 28.4092 37.9547V33.4093C28.4092 32.7274 28.8638 32.2729 29.5455 32.2729C30.2273 32.2729 30.6818 32.7275 30.6818 33.4093V37.9547C30.6819 38.6364 30.2273 39.091 29.5455 39.091Z" fill="#F19920"/>
<path d="M34.7728 33.5229C35 34.2047 35.2273 34.8865 35.2273 35.6819C35.2273 38.8638 32.7273 41.3638 29.5455 41.3638C29.2046 41.3638 28.7501 41.3638 28.4092 41.2501V41.3638C28.4092 42.1592 28.5229 42.841 28.7501 43.6365C28.9773 43.6365 29.3183 43.6365 29.5455 43.6365C33.9773 43.6365 37.5001 40.1138 37.5001 35.6819C37.5001 34.8865 37.3864 34.2047 37.1592 33.4092C36.9319 33.4092 36.591 33.4092 36.3638 33.4092C35.7954 33.4093 35.3409 33.4093 34.7728 33.5229Z" fill="#F6B545"/>
<path d="M35.227 50.4546C39.6202 50.4546 43.1816 46.8932 43.1816 42.5C43.1816 38.1068 39.6202 34.5454 35.227 34.5454C30.8339 34.5454 27.2725 38.1068 27.2725 42.5C27.2725 46.8932 30.8339 50.4546 35.227 50.4546Z" fill="#F6B545"/>
<path d="M35.227 34.5459C30.7952 34.5459 27.2725 38.0687 27.2725 42.5005C27.2725 46.9323 30.7952 50.4551 35.227 50.4551C39.6589 50.4551 43.1816 46.9323 43.1816 42.5005C43.1816 38.0687 39.6589 34.5459 35.227 34.5459ZM35.227 48.1823C32.0452 48.1823 29.5452 45.6823 29.5452 42.5005C29.5452 39.3187 32.0452 36.8187 35.227 36.8187C38.4089 36.8187 40.9089 39.3187 40.9089 42.5005C40.9089 45.6823 38.4089 48.1823 35.227 48.1823Z" fill="#FFCB5B"/>
<path d="M35.2271 50.3409C39.6589 50.4546 43.1816 46.8182 43.1816 42.5H43.068C42.4998 42.5 42.0452 42.9546 41.9316 43.5228C41.7044 45.1137 40.9089 46.5909 39.7726 47.6137C38.8635 48.5227 37.6135 49.0909 36.2498 49.3183C35.6816 49.3182 35.2271 49.7726 35.2271 50.3409Z" fill="#F6B545"/>
<path d="M35.227 34.6588C30.7952 34.5452 27.2725 38.1816 27.2725 42.4998H27.3861C27.9543 42.4998 28.4089 42.0452 28.5225 41.477C28.7497 39.8861 29.5452 38.4088 30.6815 37.3861C31.5906 36.477 32.8406 35.9088 34.2043 35.6815C34.7726 35.6816 35.227 35.227 35.227 34.6588Z" fill="#FFE27A"/>
<path d="M30.3409 43.2956C30.3409 40.1138 32.8409 37.6138 36.0228 37.6138C37.3864 37.6138 38.6364 38.0684 39.6591 38.9774C38.5228 37.6138 37.0454 36.8184 35.2272 36.8184C32.0454 36.8184 29.5454 39.3184 29.5454 42.5002C29.5454 44.3184 30.3408 45.7956 31.5908 46.8184C30.7954 45.9093 30.3409 44.6593 30.3409 43.2956Z" fill="#F19920"/>
<path d="M38.6364 46.0226C38.5227 46.0226 38.4091 46.0226 38.2954 45.9089C38.0682 45.6816 38.0682 45.3407 38.2954 45.1135C38.9773 44.4316 39.3182 43.4089 39.3182 42.4998C39.3182 42.1589 39.5454 41.9316 39.8864 41.9316C40.2273 41.9316 40.4545 42.1589 40.4545 42.4998C40.4545 43.7498 39.9999 44.9998 39.2045 45.9089C38.9773 46.0226 38.75 46.0226 38.6364 46.0226Z" fill="#FFCB5B"/>
<path d="M35.2271 45.909C34.5453 45.909 34.0908 45.4544 34.0908 44.7727V40.2271C34.0908 39.5453 34.5454 39.0908 35.2271 39.0908C35.909 39.0908 36.3635 39.5454 36.3635 40.2271V44.7726C36.3636 45.4544 35.909 45.909 35.2271 45.909Z" fill="#F19920"/>
</g>
<defs>
<clipPath id="clip0_618_3794">
<rect width="50" height="50" fill="white"/>
</clipPath>
</defs>
</svg>
